{"title":"[Ani] DC - Justice league doom [ATG 2012] 720p.mp4","uid":7220186,"size":821411230,"categoryP":"video","categoryS":"hd___movies","magnet":"?xt=urn:btih:0b7419d4a8f2fbe6df762fa7f73c50b5b5d0c652&amp;dn=%5BAni%5D+DC+-+Justice+league+doom+%5BATG+2012%5D+720p.mp4&amp;tr=udp%3A%2F%2Ftracker.openbittorrent.com%3A80&amp;tr=udp%3A%2F%2Fopen.demonii.com%3A1337&amp;tr=udp%3A%2F%2Ftracker.coppersurfer.tk%3A6969&amp;tr=udp%3A%2F%2Fexodus.desync.com%3A6969","seeders":0,"leechers":0,"uploader":null,"files":1,"time":1335506744,"description":"General\nComplete name                            : [Ani] DC - Justice league doom [ATG 2012] 720p.mp4\nFormat                                   : MPEG-4\nFormat profile                           : Base Media\nCodec ID                                 : isom\nFile size                                : 783 MiB\nDuration                                 : 1h 16mn\nOverall bit rate mode                    : Variable\nOverall bit rate                         : 1 425 Kbps\n\nVideo\nID                                       : 1\nFormat                                   : AVC\nFormat/Info                              : Advanced Video Codec\nFormat profile                           : &lt;a class=&quot;__cf_email__&quot; href=&quot;/cdn-cgi/l/email-protection&quot; data-cfemail=&quot;3d75545a557d7109130d&quot;&gt;[email&amp;#160;protected]&lt;/a&gt;&lt;script cf-hash='f9e31' type=&quot;text/javascript&quot;&gt;\n/* &lt;![CDATA[ */!function(){try{var t=&quot;currentScript&quot;in document?document.currentScript:function(){for(var t=document.getElementsByTagName(&quot;script&quot;),e=t.length;e--;)if(t[e].getAttribute(&quot;cf-hash&quot;))return t[e]}();if(t&amp;&amp;t.previousSibling){var e,r,n,i,c=t.previousSibling,a=c.getAttribute(&quot;data-cfemail&quot;);if(a){for(e=&quot;&quot;,r=parseInt(a.substr(0,2),16),n=2;a.length-n;n+=2)i=parseInt(a.substr(n,2),16)^r,e+=String.fromCharCode(i);e=document.createTextNode(e),c.parentNode.replaceChild(e,c)}}}catch(u){}}();/* ]]&gt; */&lt;/script&gt;\nFormat settings, CABAC                   : Yes\nFormat settings, ReFrames                : 7 frames\nCodec ID                                 : avc1\nCodec ID/Info                            : Advanced Video Coding\nDuration                                 : 1h 16mn\nBit rate                                 : 1 200 Kbps\nMaximum bit rate                         : 12.8 Mbps\nWidth                                    : 1 280 pixels\nHeight                                   : 720 pixels\nDisplay aspect ratio                     : 16:9\nFrame rate mode                          : Constant\nFrame rate                               : 23.976 fps\nColor space                              : YUV\nChroma subsampling                       : 4:2:0\nBit depth                                : 8 bits\nScan type                                : Progressive\nBits/(Pixel*Frame)                       : 0.054\nStream size                              : 659 MiB (84%)\nWriting library                          : x264 core 122 r2183 c522ad1\n\nAudio\nID                                       : 2\nFormat                                   : AAC\nFormat/Info                              : Advanced Audio Codec\nFormat profile                           : LC\nCodec ID                                 : 40\nDuration                                 : 1h 16mn\nBit rate mode                            : Variable\nBit rate                                 : 221 Kbps\nMaximum bit rate                         : 298 Kbps\nChannel(s)                               : 6 channels\nChannel positions                        : Front: L C R, Side: L R, LFE\nSampling rate                            : 48.0 KHz\nCompression mode                         : Lossy\nStream size                              : 122 MiB (16%)\n","torrent":{"xt":"urn:btih:0b7419d4a8f2fbe6df762fa7f73c50b5b5d0c652","amp;dn":"%5BAni%5D+DC+-+Justice+league+doom+%5BATG+2012%5D+720p.mp4","amp;tr":["udp%3A%2F%2Ftracker.openbittorrent.com%3A80","udp%3A%2F%2Fopen.demonii.com%3A1337","udp%3A%2F%2Ftracker.coppersurfer.tk%3A6969","udp%3A%2F%2Fexodus.desync.com%3A6969"],"infoHash":"0b7419d4a8f2fbe6df762fa7f73c50b5b5d0c652","infoHashBuffer":{"type":"Buffer","data":[11,116,25,212,168,242,251,230,223,118,47,167,247,60,80,181,181,208,198,82]},"announce":[],"urlList":[]}}